#!OML:ASF H:\Punching\Project 1\Capture day 1\Session 1\female.ASF
:FULLY-SPECIFIED
:DEGREES
1349
root -1.64294 11.9933 4.16919 17.0008 10.4039 2.96743
lowerback 18.552 2.99122 6.14655
upperback 0.016884 5.60528 3.09854
thorax -10.1373 2.43016 -1.57643
lowerneck -10.4076 -3.97023 4.16652
upperneck 16.4323 -5.4984 -3.47028
head 6.4901 -2.66367 -2.25547
rclavicle -2.46493e-014 4.77083e-015
rhumerus 22.5058 11.0774 -73.2234
rradius 136.102
rwrist -48.5074
rhand -15.0006 -8.3427
rfingers 7.12502
rthumb 11.1642 -38.0257
lclavicle -2.46493e-014 4.77083e-015
lhumerus 4.68667 -43.7552 88.3118
lradius 142.26
lwrist 20.2197
lhand -12.1739 31.8244
lfingers 7.12502
lthumb 13.8894 61.3405
rfemur -78.3616 -5.96601 7.7996
rtibia 88.4941
rfoot -22.576 -4.5917
rtoes -10.0189
lfemur -44.305 2.86085 3.59
ltibia 91.1879
lfoot -26.8355 -17.8623
ltoes -41.847
1350
root -1.61534 12.0036 4.16716 17.1236 9.23569 2.80754
lowerback 18.4592 2.98086 6.14894
upperback -0.01967 5.56602 2.92092
thorax -10.1082 2.40657 -1.75569
lowerneck -10.3759 -3.52024 4.59927
upperneck 16.6707 -4.88435 -3.90167
head 6.56183 -2.37533 -2.4204
rclavicle -6.36111e-015 6.36111e-015
rhumerus 22.3922 12.1204 -74.2611
rradius 135.968
rwrist -48.2366
rhand -14.942 -8.27188
rfingers 7.12502
rthumb 11.2207 -37.9518
lclavicle -6.36111e-015 6.36111e-015
lhumerus 5.1893 -44.0071 87.9575
lradius 141.941
lwrist 19.8229
lhand -12.1431 31.901
lfingers 7.12502
lthumb 13.9191 61.4151
rfemur -78.8165 -5.55352 8.01926
rtibia 88.044
rfoot -22.2717 -3.81267
rtoes -9.71343
lfemur -43.8183 3.21151 3.32546
ltibia 91.2362
lfoot -27.0973 -17.1649
ltoes -42.3109
1351
root -1.58483 12.0141 4.16668 17.2284 7.9331 2.5596
lowerback 18.3672 2.91987 6.15506
upperback -0.0492684 5.46082 2.74535
thorax -10.0764 2.35198 -1.91798
lowerneck -10.3346 -2.98249 5.12213
upperneck 16.8952 -4.15532 -4.38583
head 6.63556 -2.03118 -2.60827
rclavicle -4.21423e-014 7.95139e-015
rhumerus 22.2306 13.2394 -75.3659
rradius 135.87
rwrist -48.0383
rhand -14.8399 -8.20543
rfingers 7.12502
rthumb 11.3191 -37.88
lclavicle -4.21423e-014 7.95139e-015
lhumerus 5.78555 -44.183 87.4993
lradius 141.506
lwrist 19.6688
lhand -12.2392 32.0389
lfingers 7.12502
lthumb 13.8265 61.5593
rfemur -79.2722 -5.05888 8.3458
rtibia 87.5335
rfoot -21.953 -2.95891
rtoes -9.34013
lfemur -43.2592 3.66184 3.11553
ltibia 91.3105
lfoot -27.317 -16.4846
ltoes -42.7198
1352
root -1.55231 12.0247 4.16728 17.3309 6.5093 2.22935
lowerback 18.2672 2.80673 6.13668
upperback -0.0836246 5.28346 2.58658
thorax -10.0552 2.26463 -2.03013
lowerneck -10.2315 -2.35747 5.72519
upperneck 17.0862 -3.3065 -4.92598
head 6.69975 -1.6295 -2.81683
rclavicle -1.27222e-014 6.36111e-015
rhumerus 22.0118 14.4326 -76.5025
rradius 135.806
rwrist -47.9086
rhand -14.7194 -8.16173
rfingers 7.12502
rthumb 11.4354 -37.8299
lclavicle -1.27222e-014 6.36111e-015
lhumerus 6.42 -44.25 86.9866
lradius 140.946
lwrist 19.7098
lhand -12.4661 32.2136
lfingers 7.12502
lthumb 13.6078 61.7489
rfemur -79.7344 -4.47894 8.77036
rtibia 86.9661
rfoot -21.6143 -2.04795
rtoes -8.89417
lfemur -42.6563 4.21123 2.96388
ltibia 91.4128
lfoot -27.4767 -15.8354
ltoes -43.0645
1353
root -1.51774 12.0347 4.16933 17.4331 4.97979 1.81978
lowerback 18.1514 2.64418 6.09019
upperback -0.0997955 5.03486 2.44835
thorax -10.0153 2.14673 -2.08532
lowerneck -10.1427 -1.64871 6.41795
upperneck 17.2578 -2.34752 -5.52291
head 6.77561 -1.17462 -3.05094
rclavicle -1.59028e-015 1.90833e-014
rhumerus 21.7783 15.6725 -77.624
rradius 135.772
rwrist -47.8109
rhand -14.5959 -8.13679
rfingers 7.12502
rthumb 11.5545 -37.7983
lclavicle -1.59028e-015 1.90833e-014
lhumerus 7.14501 -44.1937 86.3952
lradius 140.249
lwrist 19.9076
lhand -12.8266 32.4093
lfingers 7.12502
lthumb 13.2604 61.9674
rfemur -80.1916 -3.82601 9.29172
rtibia 86.3514
rfoot -21.2603 -1.09121
rtoes -8.39775
lfemur -42.0129 4.84597 2.8728
ltibia 91.5446
lfoot -27.5984 -15.2011
ltoes -43.3847
1354
root -1.4815 12.0439 4.17318 17.541 3.36633 1.34345
lowerback 18.0206 2.43354 6.00427
upperback -0.101798 4.7152 2.33355
thorax -9.96215 1.99859 -2.07459
lowerneck -10.0643 -0.861934 7.20231
upperneck 17.4213 -1.28529 -6.17809
head 6.87026 -0.669694 -3.31186
rclavicle 4.21423e-014 4.77083e-014
rhumerus 21.5219 16.9557 -78.6949
rradius 135.763
rwrist -47.7165
rhand -14.5007 -8.14742
rfingers 7.12502
rthumb 11.6463 -37.8038
lclavicle 4.21423e-014 4.77083e-014
lhumerus 7.93945 -44.0095 85.7474
lradius 139.411
lwrist 20.2171
lhand -13.3135 32.6284
lfingers 7.12502
lthumb 12.791 62.2166
rfemur -80.6335 -3.1162 9.89839
rtibia 85.7019
rfoot -20.8923 -0.103658
rtoes -7.86776
lfemur -41.3385 5.54642 2.83542
ltibia 91.7032
lfoot -27.6788 -14.5873
ltoes -43.6714
1355
root -1.44414 12.0517 4.17909 17.6575 1.68694 0.813485
lowerback 17.873 2.18051 5.88287
upperback -0.0930019 4.33222 2.2339
thorax -9.89605 1.82323 -2.01134
lowerneck -9.97744 -0.00889019 8.08062
upperneck 17.5839 -0.135645 -6.88164
head 6.98661 -0.121035 -3.59738
rclavicle -2.62396e-014 -2.22639e-014
rhumerus 21.2427 18.2373 -79.6839
rradius 135.761
rwrist -47.6399
rhand -14.4246 -8.17174
rfingers 7.12502
rthumb 11.7196 -37.8239
lclavicle -2.62396e-014 -2.22639e-014
lhumerus 8.7796 -43.7074 85.0588
lradius 138.437
lwrist 20.6116
lhand -13.9124 32.8729
lfingers 7.12502
lthumb 12.2135 62.4963
rfemur -81.0546 -2.36284 10.579
rtibia 85.0329
rfoot -20.5095 0.901236
rtoes -7.31992
lfemur -40.6359 6.29282 2.84598
ltibia 91.8833
lfoot -27.7235 -13.9949
ltoes -43.9266
1356
root -1.40598 12.0579 4.18746 17.7853 -0.0396411 0.246699
lowerback 17.7032 1.88888 5.72287
upperback -0.0760999 3.88985 2.14471
thorax -9.81536 1.62233 -1.90005
lowerneck -9.84903 0.897697 9.0412
upperneck 17.7387 1.08664 -7.61612
head 7.12036 0.465531 -3.8999
rclavicle 5.48646e-014 4.13472e-014
rhumerus 20.9171 19.5122 -80.5704
rradius 135.764
rwrist -47.5781
rhand -14.3822 -8.17149
rfingers 7.12502
rthumb 11.7606 -37.8213
lclavicle 5.48646e-014 4.13472e-014
lhumerus 9.62985 -43.2834 84.3633
lradius 137.333
lwrist 21.0639
lhand -14.5755 33.1254
lfingers 7.12502
lthumb 11.5742 62.7858
rfemur -81.4474 -1.5859 11.3221
rtibia 84.3603
rfoot -20.1261 1.89416
rtoes -6.82953
lfemur -39.9087 7.06046 2.88904
ltibia 92.0792
lfoot -27.7327 -13.4217
ltoes -44.1378
1357
root -1.36709 12.0625 4.19906 17.9149 -1.81306 -0.342894
lowerback 17.5219 1.56446 5.52308
upperback -0.0529794 3.39585 2.05734
thorax -9.72554 1.3989 -1.75234
lowerneck -9.66422 1.84959 10.0784
upperneck 17.8949 2.37293 -8.36967
head 7.27534 1.08705 -4.21465
rclavicle 1.23246e-014 1.43125e-014
rhumerus 20.5438 20.7432 -81.3486
rradius 135.767
rwrist -47.5957
rhand -14.3135 -8.12265
rfingers 7.12502
rthumb 11.8268 -37.7687
lclavicle 1.23246e-014 1.43125e-014
lhumerus 10.4941 -42.7323 83.6455
lradius 136.091
lwrist 21.5646
lhand -15.2925 33.4001
lfingers 7.12502
lthumb 10.8826 63.0981
rfemur -81.7949 -0.782562 12.1034
rtibia 83.6953
rfoot -19.758 2.8638
rtoes -6.42727
lfemur -39.1343 7.835 2.94482
ltibia 92.2813
lfoot -27.7054 -12.8641
ltoes -44.2847
1358
root -1.32807 12.065 4.21365 18.0539 -3.62548 -0.949424
lowerback 17.3285 1.21426 5.28948
upperback -0.0291434 2.86057 1.96422
thorax -9.6297 1.15696 -1.58272
lowerneck -9.416 2.8344 11.1762
upperneck 18.0559 3.70814 -9.11849
head 7.45335 1.73766 -4.53138
rclavicle 5.1684e-015 -4.77083e-015
rhumerus 20.1266 21.9026 -82.0175
rradius 135.767
rwrist -47.7047
rhand -14.1971 -7.99737
rfingers 7.12502
rthumb 11.939 -37.6369
lclavicle 5.1684e-015 -4.77083e-015
lhumerus 11.3951 -42.0425 82.8829
lradius 134.69
lwrist 22.1116
lhand -16.0366 33.6707
lfingers 7.12502
lthumb 10.1649 63.4051
rfemur -82.1036 0.049001 12.908
rtibia 83.0498
rfoot -19.423 3.80989
rtoes -6.14663
lfemur -38.3207 8.61452 3.00844
ltibia 92.4856
lfoot -27.6446 -12.3179
ltoes -44.3776
1359
root -1.28888 12.0658 4.2321 18.184 -5.47263 -1.56763
lowerback 17.1264 0.849666 5.03596
upperback 0.0106847 2.30054 1.85544
thorax -9.50969 0.903909 -1.41418
lowerneck -9.12127 3.83698 12.3347
upperneck 18.2189 5.06997 -9.85048
head 7.65682 2.40754 -4.84676
rclavicle 3.06128e-014 1.43125e-014
rhumerus 19.6957 22.9417 -82.5673
rradius 135.76
rwrist -47.8974
rhand -14.0379 -7.75579
rfingers 7.12502
rthumb 12.0926 -37.3864
lclavicle 3.06128e-014 1.43125e-014
lhumerus 12.4263 -41.2086 82.0075
lradius 133.09
lwrist 22.7319
lhand -16.8211 33.9261
lfingers 7.12502
lthumb 9.40797 63.6962
rfemur -82.3423 0.916567 13.713
rtibia 82.4295
rfoot -19.1468 4.74752
rtoes -5.98136
lfemur -37.435 9.38557 3.06862
ltibia 92.6788
lfoot -27.5609 -11.7674
ltoes -44.4225
1360
root -1.25072 12.0648 4.25373 18.3025 -7.32278 -2.17744
lowerback 16.9216 0.456941 4.74113
upperback 0.0509072 1.69612 1.74098
thorax -9.38792 0.630644 -1.21975
lowerneck -8.71401 4.85237 13.5133
upperneck 18.3657 6.46496 -10.5506
head 7.86894 3.10004 -5.14694
rclavicle -2.42517e-014 -1.98785e-014
rhumerus 19.2362 23.9054 -83.0151
rradius 135.756
rwrist -48.1016
rhand -13.844 -7.5157
rfingers 7.12502
rthumb 12.2795 -37.1352
lclavicle -2.42517e-014 -1.98785e-014
lhumerus 13.57 -40.1763 81.0205
lradius 131.243
lwrist 23.3872
lhand -17.6226 34.1344
lfingers 7.12502
lthumb 8.63456 63.9378
rfemur -82.5107 1.80866 14.4854
rtibia 81.8459
rfoot -18.9359 5.69361
rtoes -5.8841
lfemur -36.4943 10.1218 3.11281
ltibia 92.855
lfoot -27.4519 -11.2099
ltoes -44.43
1361
root -1.21468 12.0624 4.278 18.3948 -9.13974 -2.77261
lowerback 16.7075 0.0426239 4.41645
upperback 0.121 1.05618 1.61474
thorax -9.22581 0.341615 -1.01497
lowerneck -8.26486 5.86818 14.7174
upperneck 18.4937 7.8678 -11.2116
head 8.0992 3.80242 -5.43077
rclavicle -4.73108e-014 1.03368e-014
rhumerus 18.8294 24.7528 -83.3358
rradius 135.734
rwrist -48.2333
rhand -13.6759 -7.29995
rfingers 7.12502
rthumb 12.4416 -36.9096
lclavicle -4.73108e-014 1.03368e-014
lhumerus 14.9401 -38.9403 79.8586
lradius 129.074
lwrist 23.9951
lhand -18.3487 34.2695
lfingers 7.12502
lthumb 7.93384 64.1006
rfemur -82.5925 2.71809 15.2106
rtibia 81.3053
rfoot -18.7887 6.65053
rtoes -5.80968
lfemur -35.5033 10.8014 3.14701
ltibia 93.0058
lfoot -27.3244 -10.6322
ltoes -44.4314
